<svg width="22" height="22" viewBox="0 0 22 22" fill="none" xmlns="http://www.w3.org/2000/svg">
<g id="BACKGROUND_2" clip-path="url(#clip0_316_44)">
<path id="Vector" d="M1.26946 14.2615H11.11V16.0696H17.2615V14.2654H19.7054C19.8637 16.4157 19.8761 18.3303 17.6707 19.7896C17.6437 19.8074 17.6221 19.8317 17.5623 19.8849C17.8335 20.1101 18.1009 20.3328 18.3655 20.5528C18.0082 20.8943 17.7212 21.1689 17.3922 21.4841C17.1019 21.1846 16.7879 20.8372 16.4458 20.5206C16.3453 20.4274 16.1673 20.3893 16.0215 20.3801C15.7831 20.3656 15.5414 20.4044 15.301 20.405C12.1057 20.407 8.91048 20.4063 5.71457 20.4063C5.56154 20.4063 5.398 20.4359 5.25679 20.3932C4.83054 20.2651 4.55994 20.4628 4.30642 20.7682C4.09034 21.0283 3.84405 21.2628 3.61877 21.5005C3.31468 21.1807 3.03949 20.8917 2.73474 20.5705C2.939 20.3899 3.19843 20.16 3.49004 19.9013C3.28906 19.7574 3.13866 19.6576 2.99614 19.5473C1.92821 18.7243 1.3509 17.6327 1.27537 16.2922C1.23793 15.6282 1.2688 14.9603 1.2688 14.2615H1.26946Z" fill="white"/>
<path id="Vector_2" d="M1.27554 9.28721C1.27029 9.16834 1.26109 9.06128 1.26109 8.95423C1.26044 7.21375 1.25847 5.47393 1.26109 3.73345C1.26372 1.8209 2.59108 0.486313 4.50101 0.500106C5.14203 0.504703 5.80275 0.491568 6.41882 0.636717C7.5117 0.894833 8.20001 1.65276 8.53235 2.72069C8.59671 2.92824 8.68012 3.02872 8.90803 3.09046C10.194 3.43921 11.0964 4.64113 11.1128 5.98228C11.1155 6.19836 11.1128 6.41444 11.1128 6.64891H5.02578C4.73548 5.11401 5.56959 3.52985 7.31335 3.03529C7.15573 2.35027 6.48121 1.7723 5.7732 1.74734C5.23792 1.72829 4.70067 1.72632 4.16539 1.74734C3.24261 1.78346 2.50044 2.63071 2.4965 3.64676C2.48994 5.39774 2.49453 7.14938 2.49453 8.90037C2.49453 9.0199 2.49453 9.13944 2.49453 9.28656H1.27423L1.27554 9.28721Z" fill="white"/>
<path id="Vector_3" d="M11.0931 13.0328C10.9644 13.0328 10.8678 13.0328 10.7713 13.0328C7.64366 13.0328 4.5154 13.0335 1.38779 13.0321C0.714591 13.0321 0.230541 12.7136 0.0604342 12.1698C-0.195711 11.3514 0.384229 10.5633 1.26826 10.5515C2.20877 10.539 3.14929 10.5482 4.0898 10.5482C6.29922 10.5482 8.50799 10.5482 10.7174 10.5482C10.8356 10.5482 10.9538 10.5482 11.0931 10.5482V13.0321V13.0328Z" fill="white"/>
<path id="Vector_4" d="M16.0237 14.871H12.3634C12.3575 14.7554 12.3477 14.6503 12.3477 14.5452C12.3464 13.277 12.3464 12.0081 12.3477 10.7398C12.3483 9.8223 12.8494 9.31789 13.763 9.31395C14.1019 9.31263 14.4408 9.30541 14.7797 9.31592C15.5409 9.34022 16.0381 9.85185 16.0401 10.615C16.044 11.9385 16.0414 13.2612 16.0401 14.5846C16.0401 14.6707 16.0309 14.7561 16.0237 14.871Z" fill="white"/>
<path id="Vector_5" d="M17.2832 13.021V10.5482C17.8782 10.5482 18.4648 10.5462 19.0506 10.5489C19.356 10.5502 19.668 10.5252 19.9668 10.5745C20.619 10.6822 21.0433 11.2162 21.0164 11.8395C20.9901 12.4509 20.5389 12.9757 19.8985 13.0092C19.0394 13.0545 18.1764 13.0204 17.2839 13.0204L17.2832 13.021Z" fill="white"/>
</g>
<defs>
<clipPath id="clip0_316_44">
<rect width="21.0171" height="21" fill="white" transform="translate(0 0.5)"/>
</clipPath>
</defs>
</svg>
