<svg width="24" height="25" viewBox="0 0 24 25" fill="none" xmlns="http://www.w3.org/2000/svg">
<path fill-rule="evenodd" clip-rule="evenodd" d="M4.8001 20.2999V4.6999H4.5001C4.00304 4.6999 3.6001 4.29696 3.6001 3.7999C3.6001 3.30285 4.00304 2.8999 4.5001 2.8999H19.5001C19.9972 2.8999 20.4001 3.30285 20.4001 3.7999C20.4001 4.29696 19.9972 4.6999 19.5001 4.6999H19.2001V20.2999H19.5001C19.9972 20.2999 20.4001 20.7028 20.4001 21.1999C20.4001 21.697 19.9972 22.0999 19.5001 22.0999H15.3001C14.803 22.0999 14.4001 21.697 14.4001 21.1999V18.1999C14.4001 17.7028 13.9972 17.2999 13.5001 17.2999H10.5001C10.003 17.2999 9.6001 17.7028 9.6001 18.1999V21.1999C9.6001 21.697 9.19715 22.0999 8.7001 22.0999H4.5001C4.00304 22.0999 3.6001 21.697 3.6001 21.1999C3.6001 20.7028 4.00304 20.2999 4.5001 20.2999H4.8001ZM8.4001 7.0999C8.4001 6.76853 8.66873 6.4999 9.0001 6.4999H10.2001C10.5315 6.4999 10.8001 6.76853 10.8001 7.0999V8.2999C10.8001 8.63127 10.5315 8.8999 10.2001 8.8999H9.0001C8.66873 8.8999 8.4001 8.63127 8.4001 8.2999V7.0999ZM9.0001 11.2999C8.66873 11.2999 8.4001 11.5685 8.4001 11.8999V13.0999C8.4001 13.4313 8.66873 13.6999 9.0001 13.6999H10.2001C10.5315 13.6999 10.8001 13.4313 10.8001 13.0999V11.8999C10.8001 11.5685 10.5315 11.2999 10.2001 11.2999H9.0001ZM13.2001 7.0999C13.2001 6.76853 13.4687 6.4999 13.8001 6.4999H15.0001C15.3315 6.4999 15.6001 6.76853 15.6001 7.0999V8.2999C15.6001 8.63127 15.3315 8.8999 15.0001 8.8999H13.8001C13.4687 8.8999 13.2001 8.63127 13.2001 8.2999V7.0999ZM13.8001 11.2999C13.4687 11.2999 13.2001 11.5685 13.2001 11.8999V13.0999C13.2001 13.4313 13.4687 13.6999 13.8001 13.6999H15.0001C15.3315 13.6999 15.6001 13.4313 15.6001 13.0999V11.8999C15.6001 11.5685 15.3315 11.2999 15.0001 11.2999H13.8001Z" fill="white"/>
</svg>
