<svg width="16.500000" height="20.248535" viewBox="0 0 16.5 20.2485" fill="none" xmlns="http://www.w3.org/2000/svg" xmlns:xlink="http://www.w3.org/1999/xlink">
    <defs/>
    <path id="Subtract" d="M7.78906 20.1011C7.82031 20.1185 7.84375 20.1321 7.86133 20.1415L7.88867 20.1571C8.11133 20.2794 8.38867 20.2785 8.61133 20.1575L8.63867 20.1415C8.65625 20.1321 8.67969 20.1185 8.71094 20.1011C8.77148 20.066 8.85742 20.015 8.96484 19.9482C9.18164 19.8146 9.48828 19.6176 9.85547 19.3591C10.5859 18.8431 11.5605 18.0775 12.5371 17.0773C14.4805 15.0869 16.5 12.0962 16.5 8.25C16.5 3.69366 12.8066 0 8.25 0C3.69336 0 0 3.69366 0 8.25C0 12.0962 2.01953 15.0869 3.96289 17.0773C4.93945 18.0775 5.91406 18.8431 6.64453 19.3591C7.01172 19.6176 7.31836 19.8146 7.53516 19.9482C7.64258 20.015 7.72852 20.066 7.78906 20.1011ZM8.25 11.25C9.90625 11.25 11.25 9.90686 11.25 8.25C11.25 6.59314 9.90625 5.25 8.25 5.25C6.59375 5.25 5.25 6.59314 5.25 8.25C5.25 9.90686 6.59375 11.25 8.25 11.25Z" fill="#999999" fill-opacity="1.000000" fill-rule="evenodd"/>
</svg>
