<svg width="389" height="395" viewBox="0 0 389 395" fill="none" xmlns="http://www.w3.org/2000/svg">
<g clip-path="url(#clip0_657_2)">
<path fill-rule="evenodd" clip-rule="evenodd" d="M341.585 231.284C341.293 230.865 340.871 231.017 341.134 229.203C342.118 226.232 340.865 229.761 340.981 229.256C341.126 230.133 341.663 229.706 341.992 229.659C341.891 230.052 341.755 230.687 341.585 231.284Z" fill="#1A1A1A"/>
<path fill-rule="evenodd" clip-rule="evenodd" d="M354.949 396.385C359.16 393.668 362.999 390.915 366.697 388.602C370.398 393.232 374.336 398.482 378.096 403.836C374.653 406.866 370.984 409.822 367.024 413.216C363.149 407.562 359.01 401.944 354.949 396.385Z" fill="#1A1A1A"/>
<path fill-rule="evenodd" clip-rule="evenodd" d="M368.459 387.474C371.981 385.38 375.163 383.151 378.32 381.331C381.83 385.464 385.194 389.762 388.779 394.38C385.961 396.841 382.859 399.351 379.747 402.139C376.026 397.25 372.169 392.071 368.459 387.474Z" fill="#1A1A1A"/>
<path fill-rule="evenodd" clip-rule="evenodd" d="M167.458 364.833C180.023 362.183 191.569 359.572 202.443 357.086C206.634 363.857 210.912 370.323 214.918 377.262C204.37 380.203 192.732 383.993 179.846 387.854C175.653 379.863 171.59 372.304 167.457 364.833H167.458Z" fill="#1A1A1A"/>
<path fill-rule="evenodd" clip-rule="evenodd" d="M239.921 357.187C248.693 355.239 256.411 353.318 264.092 351.865C267.859 356.975 271.961 362.269 276.051 367.819C268.557 370.099 260.69 372.548 252.237 375.257C248.298 369.171 244.011 362.92 239.921 357.186V357.187Z" fill="#1A1A1A"/>
<path fill-rule="evenodd" clip-rule="evenodd" d="M250.24 317.411C257.226 317.13 263.763 316.707 270.07 316.371C273.618 320.253 277.091 324.038 280.43 327.972C274.312 328.529 267.816 329.236 260.905 330.248C257.456 325.815 254.013 321.521 250.24 317.411Z" fill="#1A1A1A"/>
<path fill-rule="evenodd" clip-rule="evenodd" d="M301.982 398.755C308.612 395.358 314.654 392.388 320.382 389.55C324.331 395.173 328.498 400.991 332.686 406.908C327.185 410.662 321.163 414.8 314.821 419.153C310.469 411.81 306.272 405.315 301.982 398.753V398.755Z" fill="#1A1A1A"/>
<path fill-rule="evenodd" clip-rule="evenodd" d="M323.914 387.482C329.208 385.036 334.207 382.652 338.941 380.279C342.719 385.129 346.513 390.247 350.312 395.506C345.831 398.615 341.141 401.585 336.022 404.55C332.054 398.927 327.952 393.173 323.914 387.483V387.482Z" fill="#1A1A1A"/>
<path fill-rule="evenodd" clip-rule="evenodd" d="M341.679 378.89C345.982 376.454 350.101 374.656 354.187 372.875C357.743 377.41 361.392 382.043 365.143 386.725C361.278 388.898 357.237 391.42 353.164 394.22C349.391 389.038 345.449 383.844 341.679 378.89Z" fill="#1A1A1A"/>
<path fill-rule="evenodd" clip-rule="evenodd" d="M355.976 372.377C359.607 370.616 363.192 368.96 366.682 367.495C369.773 371.401 373.043 375.294 376.27 379.188C373.101 381.153 369.745 383.269 366.342 385.538C362.842 381.08 359.307 376.619 355.978 372.377H355.976Z" fill="#1A1A1A"/>
<path fill-rule="evenodd" clip-rule="evenodd" d="M379.041 361.663C381.926 360.614 384.444 359.439 386.946 358.282C389.637 361.319 392.436 364.508 395.014 367.513C392.742 368.982 390.532 370.563 387.821 371.955C384.978 368.529 382.04 365.068 379.041 361.662V361.663Z" fill="#1A1A1A"/>
<path fill-rule="evenodd" clip-rule="evenodd" d="M388.275 357.739C390.704 356.586 392.898 355.438 395.057 354.589C397.564 357.313 399.883 359.966 402.477 362.912C400.5 364.2 398.465 365.444 396.361 366.87C393.605 363.776 391.016 360.732 388.275 357.739Z" fill="#1A1A1A"/>
<path fill-rule="evenodd" clip-rule="evenodd" d="M284.364 335.754C290.212 334.949 295.785 334.261 301.194 333.414C304.567 337.468 307.966 341.377 311.543 345.446C306.388 346.535 300.901 347.562 295.057 349.008C291.467 344.473 287.868 340.108 284.363 335.754H284.364Z" fill="#1A1A1A"/>
<path fill-rule="evenodd" clip-rule="evenodd" d="M287.502 297.495C292.545 297.758 297.334 297.99 301.895 298.207C304.708 301 307.491 303.833 310.361 306.537C305.799 306.565 301.233 306.501 296.321 306.434C293.472 303.409 290.457 300.451 287.504 297.495H287.502Z" fill="#1A1A1A"/>
<path fill-rule="evenodd" clip-rule="evenodd" d="M262.241 385.321C270.361 382.299 278.091 379.612 285.257 376.966C289.431 382.944 293.685 389.282 297.822 395.69C290.972 399.2 283.427 402.765 275.717 406.37C271.225 399.311 266.742 392.045 262.242 385.323L262.241 385.321Z" fill="#1A1A1A"/>
<path fill-rule="evenodd" clip-rule="evenodd" d="M311.518 368.37C317.129 366.469 322.249 364.732 327.123 362.944C330.658 367.301 334.356 372.035 337.904 376.902C333.262 379.146 328.181 381.528 323.05 383.988C319.342 378.582 315.347 373.284 311.517 368.37H311.518Z" fill="#1A1A1A"/>
<path fill-rule="evenodd" clip-rule="evenodd" d="M329.907 362.08C334.554 360.519 338.907 359.139 343.079 357.878C346.574 362.008 349.966 366.201 353.461 370.371C349.492 372.068 345.448 373.772 341.074 375.893C337.284 371.023 333.653 366.334 329.907 362.08Z" fill="#1A1A1A"/>
<path fill-rule="evenodd" clip-rule="evenodd" d="M344.877 357.419C348.745 356.17 352.499 354.941 356.181 353.692C359.249 357.333 362.318 360.912 365.455 364.624C362.063 366.144 358.481 367.85 354.836 369.494C351.424 365.376 348.055 361.306 344.879 357.417L344.877 357.419Z" fill="#1A1A1A"/>
<path fill-rule="evenodd" clip-rule="evenodd" d="M358.616 352.953C361.916 351.958 365.149 351 368.102 350.047C371.187 353.488 374.115 356.69 377.004 360.131C374.234 361.224 371.254 362.464 367.99 364.025C364.912 360.108 361.668 356.439 358.616 352.953Z" fill="#1A1A1A"/>
<path fill-rule="evenodd" clip-rule="evenodd" d="M369.548 349.739C372.549 348.911 375.237 347.963 377.939 347.186C380.586 350.047 383.285 353.124 385.801 356.105C383.36 357.173 380.851 358.361 377.938 359.351C375.233 356.257 372.361 352.908 369.55 349.739H369.548Z" fill="#1A1A1A"/>
<path fill-rule="evenodd" clip-rule="evenodd" d="M379.378 346.722C381.964 346.025 384.398 345.421 386.696 344.749C389.122 347.397 391.617 350.003 393.92 352.596C391.816 353.397 389.51 354.341 387.221 355.473C384.662 352.471 382.027 349.616 379.378 346.722Z" fill="#1A1A1A"/>
<path fill-rule="evenodd" clip-rule="evenodd" d="M387.755 344.417C389.946 343.813 392.043 343.173 394.048 342.471C396.29 344.888 398.553 347.297 400.666 349.646C398.9 350.494 396.951 351.335 394.95 352.124C392.555 349.587 390.188 346.978 387.754 344.417H387.755Z" fill="#1A1A1A"/>
<path fill-rule="evenodd" clip-rule="evenodd" d="M321.946 331.28C326.328 330.832 330.547 330.492 334.592 330.048C337.583 333.273 340.634 336.575 343.678 339.832C339.775 340.488 335.877 341.273 331.501 342.16C328.31 338.463 325.152 334.785 321.946 331.28Z" fill="#1A1A1A"/>
<path fill-rule="evenodd" clip-rule="evenodd" d="M336.429 329.756C340.243 329.275 343.97 328.951 347.318 328.504C350.25 331.517 353.149 334.598 355.871 337.615C352.557 338.259 349.137 338.908 345.444 339.5C342.512 336.339 339.421 332.97 336.429 329.756Z" fill="#1A1A1A"/>
<path fill-rule="evenodd" clip-rule="evenodd" d="M348.981 328.319C352.461 327.984 355.58 327.687 358.607 327.396C361.228 330.061 363.977 332.918 366.594 335.654C363.684 336.203 360.674 336.758 357.505 337.431C354.748 334.317 351.839 331.244 348.981 328.319Z" fill="#1A1A1A"/>
<path fill-rule="evenodd" clip-rule="evenodd" d="M360.033 327.231C362.995 326.947 365.807 326.775 368.493 326.526C370.951 329.012 373.566 331.76 375.939 334.206C373.383 334.637 370.702 334.958 367.956 335.391C365.448 332.77 362.652 329.913 360.031 327.231H360.033Z" fill="#1A1A1A"/>
<path fill-rule="evenodd" clip-rule="evenodd" d="M369.808 326.431C372.399 326.143 374.822 325.79 377.253 325.694C379.537 327.971 381.877 330.34 384.186 332.788C382.007 333.165 379.687 333.597 377.186 334.062C374.779 331.488 372.227 328.911 369.808 326.431Z" fill="#1A1A1A"/>
<path fill-rule="evenodd" clip-rule="evenodd" d="M378.379 325.655C380.644 325.438 382.732 325.238 384.851 325.098C387.081 327.256 389.321 329.475 391.258 331.537C389.4 331.909 387.411 332.293 385.214 332.569C382.979 330.18 380.754 327.923 378.381 325.655H378.379Z" fill="#1A1A1A"/>
<path fill-rule="evenodd" clip-rule="evenodd" d="M385.805 325.026C387.835 324.819 389.814 324.686 391.585 324.494C393.634 326.491 395.651 328.551 397.645 330.541C395.975 330.933 394.061 331.132 392.263 331.398C390.161 329.314 388.079 327.184 385.805 325.028V325.026Z" fill="#1A1A1A"/>
<path fill-rule="evenodd" clip-rule="evenodd" d="M388.91 312.745C385.816 312.477 382.686 312.485 379.278 312.329C378.639 312.27 377.917 312.216 377.17 311.989C380.729 312.329 383.989 312.253 387.135 312.442C387.876 312.718 388.44 312.619 388.91 312.747V312.745Z" fill="#1A1A1A"/>
<path fill-rule="evenodd" clip-rule="evenodd" d="M326.894 319.187C330.84 318.935 334.756 318.795 338.292 318.566C341.125 321.407 343.926 324.296 346.658 327.237C343.162 327.589 339.436 327.929 335.726 328.361C332.8 325.196 329.774 322.055 326.896 319.185L326.894 319.187Z" fill="#1A1A1A"/>
<path fill-rule="evenodd" clip-rule="evenodd" d="M340.013 318.467C343.544 318.411 346.897 318.339 350.044 318.204C352.598 320.829 355.407 323.578 357.881 326.199C354.903 326.492 351.669 326.719 348.329 326.992C345.624 324.13 342.773 321.238 340.013 318.469V318.467Z" fill="#1A1A1A"/>
<path fill-rule="evenodd" clip-rule="evenodd" d="M351.561 318.192C354.679 318.115 357.609 318.12 360.499 318.051C362.953 320.392 365.402 322.881 367.779 325.446C365.065 325.594 362.257 325.79 359.33 326.133C356.894 323.525 354.123 320.764 351.559 318.19L351.561 318.192Z" fill="#1A1A1A"/>
<path fill-rule="evenodd" clip-rule="evenodd" d="M361.844 317.967C364.597 317.911 367.163 317.96 369.654 317.879C372.009 320.14 374.299 322.393 376.525 324.63C374.18 324.734 371.726 325.029 369.097 325.315C366.701 322.866 364.254 320.337 361.844 317.967Z" fill="#1A1A1A"/>
<path fill-rule="evenodd" clip-rule="evenodd" d="M370.856 317.822C373.324 317.87 375.473 317.754 377.723 317.775C379.942 319.92 382.099 321.985 384.189 324.086C382.113 324.273 379.947 324.45 377.651 324.593C375.427 322.317 373.164 320.164 370.856 317.822Z" fill="#1A1A1A"/>
<path fill-rule="evenodd" clip-rule="evenodd" d="M378.752 317.699C380.956 317.674 382.952 317.667 384.946 317.595C386.99 319.571 388.967 321.524 390.953 323.517C389.172 323.861 387.24 323.948 385.217 324.089C383.047 321.931 381.011 319.847 378.751 317.699H378.752Z" fill="#1A1A1A"/>
<path fill-rule="evenodd" clip-rule="evenodd" d="M385.877 317.618C387.737 317.618 389.629 317.702 391.241 317.658C393.108 319.407 395.021 321.279 396.91 323.072C395.287 323.168 393.616 323.304 391.852 323.512C389.944 321.532 387.883 319.591 385.877 317.618Z" fill="#1A1A1A"/>
<path fill-rule="evenodd" clip-rule="evenodd" d="M317.009 308.652C321.16 308.696 325.166 308.756 328.908 308.849C331.639 311.59 334.363 314.226 337.053 316.944C333.371 317.068 329.499 317.252 325.611 317.42C322.696 314.471 319.772 311.482 317.009 308.653V308.652Z" fill="#1A1A1A"/>
<path fill-rule="evenodd" clip-rule="evenodd" d="M330.655 308.972C334.309 308.984 337.845 309.144 341.134 309.253C343.72 311.77 346.324 314.287 348.832 316.787C345.633 316.755 342.204 316.807 338.749 316.967C336.108 314.186 333.409 311.581 330.655 308.972Z" fill="#1A1A1A"/>
<path fill-rule="evenodd" clip-rule="evenodd" d="M342.797 309.28C346.036 309.344 349.173 309.472 352.135 309.605C354.496 311.878 356.9 314.223 359.307 316.688C356.468 316.708 353.492 316.764 350.423 316.811C347.921 314.274 345.317 311.71 342.799 309.28H342.797Z" fill="#1A1A1A"/>
<path fill-rule="evenodd" clip-rule="evenodd" d="M353.495 309.62C356.442 309.788 358.986 309.84 361.674 309.992C364.061 312.214 366.228 314.346 368.521 316.566C365.96 316.579 363.354 316.551 360.564 316.606C358.308 314.246 355.9 311.901 353.495 309.62Z" fill="#1A1A1A"/>
<path fill-rule="evenodd" clip-rule="evenodd" d="M363.053 310.108C365.501 310.155 367.899 310.224 370.284 310.364C372.493 312.497 374.608 314.522 376.658 316.514C374.521 316.623 372.221 316.638 369.718 316.583C367.504 314.354 365.288 312.265 363.053 310.108Z" fill="#1A1A1A"/>
<path fill-rule="evenodd" clip-rule="evenodd" d="M371.458 310.4C373.791 310.56 375.843 310.649 377.812 310.728C379.897 312.652 382.03 314.593 383.941 316.475C381.992 316.507 379.954 316.571 377.719 316.514C375.667 314.529 373.589 312.509 371.458 310.4Z" fill="#1A1A1A"/>
<path fill-rule="evenodd" clip-rule="evenodd" d="M379.037 310.96C381.112 311.132 382.948 311.228 384.819 311.34C386.727 313.148 388.723 315.012 390.566 316.879C388.805 316.743 386.952 316.719 385.018 316.639C383.101 314.834 381.195 313.03 379.037 310.961V310.96Z" fill="#1A1A1A"/>
<path fill-rule="evenodd" clip-rule="evenodd" d="M321.858 300.179C325.657 300.396 329.252 300.544 332.729 300.827C335.305 303.288 337.793 305.669 340.309 308.234C336.878 308.002 333.448 307.978 329.73 307.869C327.204 305.3 324.566 302.736 321.859 300.179H321.858Z" fill="#1A1A1A"/>
<path fill-rule="evenodd" clip-rule="evenodd" d="M334.467 301.073C337.87 301.228 340.997 301.521 344.152 301.853C346.55 304.063 348.872 306.314 351.25 308.608C348.185 308.351 345.202 308.344 341.888 308.24C339.39 305.795 336.881 303.306 334.467 301.073Z" fill="#1A1A1A"/>
<path fill-rule="evenodd" clip-rule="evenodd" d="M345.61 301.977C348.606 302.209 351.383 302.505 354.195 302.81C356.472 304.874 358.67 307.024 360.961 309.179C358.25 308.903 355.587 308.847 352.61 308.628C350.377 306.467 348.004 304.238 345.61 301.977Z" fill="#1A1A1A"/>
<path fill-rule="evenodd" clip-rule="evenodd" d="M355.565 302.908C358.215 303.145 360.711 303.288 363.188 303.524C365.327 305.524 367.403 307.502 369.525 309.53C367.142 309.406 364.79 309.301 362.15 309.182C359.895 307.054 357.805 304.985 355.565 302.908Z" fill="#1A1A1A"/>
<path fill-rule="evenodd" clip-rule="evenodd" d="M364.419 303.674C366.656 303.822 368.884 304.034 371.176 304.358C373.188 306.199 375.203 308.117 377.16 309.952C375.076 309.852 372.916 309.644 370.694 309.588C368.529 307.559 366.447 305.635 364.419 303.674Z" fill="#1A1A1A"/>
<path fill-rule="evenodd" clip-rule="evenodd" d="M378.023 305.79C379.991 306.034 381.876 306.258 383.606 306.411C385.384 308.046 387.281 309.78 389.111 311.501C387.372 311.346 385.58 311.305 383.793 311.193C381.977 309.408 380.014 307.604 378.023 305.792V305.79Z" fill="#1A1A1A"/>
<path fill-rule="evenodd" clip-rule="evenodd" d="M384.667 306.502C386.353 306.65 387.961 306.758 389.522 306.955C391.156 308.531 392.804 310.004 394.375 311.544C392.995 311.524 391.419 311.411 389.915 311.364C388.235 309.795 386.413 308.086 384.667 306.502Z" fill="#1A1A1A"/>
<path fill-rule="evenodd" clip-rule="evenodd" d="M325.967 293.201C329.385 293.605 332.681 293.994 336.003 294.39C338.356 296.583 340.653 298.708 343.07 300.937C339.811 300.513 336.753 300.329 333.266 299.952C330.883 297.644 328.408 295.47 325.967 293.201Z" fill="#1A1A1A"/>
<path fill-rule="evenodd" clip-rule="evenodd" d="M337.529 294.55C340.572 294.883 343.629 295.314 346.535 295.679C348.691 297.715 350.937 299.772 353.188 301.881C350.342 301.565 347.594 301.344 344.523 301.088C342.11 298.824 339.806 296.718 337.529 294.549V294.55Z" fill="#1A1A1A"/>
<path fill-rule="evenodd" clip-rule="evenodd" d="M347.927 295.842C350.629 296.15 353.279 296.514 355.997 296.923C358.067 298.868 360.045 300.649 362.207 302.642C359.733 302.405 357.207 302.206 354.549 302.029C352.341 299.908 350.058 297.802 347.927 295.842Z" fill="#1A1A1A"/>
<path fill-rule="evenodd" clip-rule="evenodd" d="M357.179 297.107C359.578 297.475 361.976 297.792 364.252 298.1C366.231 299.917 368.299 301.741 370.266 303.531C368.007 303.299 365.784 303.055 363.44 302.79C361.272 300.824 359.22 298.964 357.179 297.107Z" fill="#1A1A1A"/>
<path fill-rule="evenodd" clip-rule="evenodd" d="M371.59 299.664C373.654 299.996 375.565 300.225 377.36 300.457C379.214 302.157 381.086 303.831 382.844 305.543C381.078 305.359 379.271 305.176 377.267 304.919C375.402 303.183 373.544 301.478 371.59 299.666V299.664Z" fill="#1A1A1A"/>
<path fill-rule="evenodd" clip-rule="evenodd" d="M378.691 300.967C380.518 301.211 382.146 301.467 383.806 301.775C385.532 303.315 387.226 304.84 389.039 306.48C387.481 306.276 385.797 306.148 384.112 306.008C382.348 304.318 380.555 302.646 378.69 300.966L378.691 300.967Z" fill="#1A1A1A"/>
<path fill-rule="evenodd" clip-rule="evenodd" d="M318.632 285.101C322.235 285.666 325.638 286.171 328.91 286.737C331.26 288.694 333.489 290.707 335.9 292.911C332.603 292.407 329.274 292.047 325.872 291.606C323.447 289.362 321.053 287.232 318.634 285.099L318.632 285.101Z" fill="#1A1A1A"/>
<path fill-rule="evenodd" clip-rule="evenodd" d="M330.464 286.9C333.685 287.455 336.76 287.888 339.777 288.411C341.867 290.352 344.057 292.224 346.275 294.258C343.348 293.834 340.327 293.462 337.271 292.997C335.032 290.96 332.796 288.975 330.464 286.9Z" fill="#1A1A1A"/>
<path fill-rule="evenodd" clip-rule="evenodd" d="M322.121 279.687C325.397 280.264 328.537 280.899 331.606 281.472C333.814 283.428 335.973 285.305 338.135 287.188C335.238 286.691 332.094 286.21 328.795 285.649C326.616 283.709 324.343 281.702 322.12 279.687H322.121Z" fill="#1A1A1A"/>
<path fill-rule="evenodd" clip-rule="evenodd" d="M286.49 281.74C291.202 282.391 295.591 282.997 299.765 283.431C302.542 285.826 305.085 288.284 307.545 290.589C303.493 290.249 299.179 289.761 294.604 289.269C292.001 286.782 289.294 284.262 286.491 281.742L286.49 281.74Z" fill="#1A1A1A"/>
<path fill-rule="evenodd" clip-rule="evenodd" d="M387.062 333.581C389.181 333.253 391.127 332.885 392.985 332.493C395.304 334.85 397.477 337.114 399.506 339.259C397.801 339.747 395.956 340.355 394.062 340.927C391.683 338.41 389.482 336.097 387.062 333.58V333.581Z" fill="#1A1A1A"/>
<path fill-rule="evenodd" clip-rule="evenodd" d="M379.282 335.217C381.692 334.805 383.931 334.34 386.114 333.896C388.449 336.382 390.771 338.774 393.109 341.247C391.108 341.899 388.971 342.535 386.781 343.175C384.305 340.474 381.727 337.766 379.282 335.217Z" fill="#1A1A1A"/>
<path fill-rule="evenodd" clip-rule="evenodd" d="M369.439 336.646C372.206 336.094 374.854 335.681 377.317 335.321C379.845 337.843 382.41 340.602 384.922 343.296C382.592 343.853 380.076 344.452 377.567 345.281C374.804 342.244 372.173 339.424 369.438 336.646H369.439Z" fill="#1A1A1A"/>
<path fill-rule="evenodd" clip-rule="evenodd" d="M359.318 338.438C362.434 337.83 365.504 337.142 368.197 336.61C370.957 339.512 373.751 342.372 376.389 345.337C373.731 346.15 370.919 347.037 367.849 347.763C365.037 344.633 362.202 341.596 359.318 338.44V338.438Z" fill="#1A1A1A"/>
<path fill-rule="evenodd" clip-rule="evenodd" d="M347.287 340.588C350.897 339.96 354.477 339.416 357.569 338.524C360.481 341.738 363.457 344.979 366.219 348.135C363.149 349.024 359.926 349.928 356.512 350.788C353.391 347.283 350.402 343.965 347.286 340.588H347.287Z" fill="#1A1A1A"/>
<path fill-rule="evenodd" clip-rule="evenodd" d="M333.654 343.473C337.896 342.596 341.796 341.812 345.462 340.98C348.609 344.441 351.789 347.899 354.895 351.505C351.069 352.564 347.541 353.886 343.492 354.921C340.148 351.072 336.841 347.239 333.654 343.473Z" fill="#1A1A1A"/>
<path fill-rule="evenodd" clip-rule="evenodd" d="M317.899 347.082C322.86 346.109 327.256 345.19 331.688 344.225C334.996 348.026 338.297 351.895 341.602 355.678C337.463 357.047 333.079 358.387 328.48 359.759C324.841 355.321 321.383 351.148 317.899 347.082Z" fill="#1A1A1A"/>
<path fill-rule="evenodd" clip-rule="evenodd" d="M153.914 325.11C157.037 322.613 160.094 320.093 162.888 317.792C167.402 320.349 171.895 322.73 176.434 325.43C173.901 328.076 171.394 330.849 168.363 333.686C163.469 330.793 158.579 327.916 153.916 325.11H153.914Z" fill="#1A1A1A"/>
<path fill-rule="evenodd" clip-rule="evenodd" d="M307.099 319.984C308.341 318.733 309.554 317.568 310.817 316.571C312.575 317.803 314.406 319.115 316.215 320.364C315.092 321.549 314.031 322.822 312.892 324.253C310.945 322.797 309.004 321.352 307.097 319.984H307.099Z" fill="#1A1A1A"/>
<path fill-rule="evenodd" clip-rule="evenodd" d="M356.266 273.741C356.749 273.003 357.193 272.234 357.601 271.464C359.183 272.774 360.873 274.192 362.531 275.573C362.273 276.459 361.907 277.269 361.494 278.136C359.759 276.677 357.995 275.194 356.267 273.741H356.266Z" fill="#1A1A1A"/>
<path fill-rule="evenodd" clip-rule="evenodd" d="M99.4248 401.755C103.328 398.698 107.009 395.77 110.585 393.191C115.241 394.625 119.81 396.321 124.604 397.941C121.127 400.758 117.706 403.803 114.19 407.084C109.19 405.202 104.075 403.507 99.4233 401.754L99.4248 401.755Z" fill="#1A1A1A"/>
<path fill-rule="evenodd" clip-rule="evenodd" d="M345.124 283.657C345.508 283.234 345.811 282.823 346.112 282.426C347.14 283.173 348.175 283.907 349.174 284.639C348.943 285.091 348.704 285.623 348.436 286.069C347.33 285.268 346.265 284.474 345.124 283.655V283.657Z" fill="#1A1A1A"/>
<path fill-rule="evenodd" clip-rule="evenodd" d="M309.692 264.335C310.619 263.94 311.498 263.591 312.367 263.27C313.678 264.161 314.988 265.084 316.328 266.057C315.597 266.497 314.793 266.889 313.88 267.395C312.515 266.329 311.103 265.334 309.692 264.337V264.335Z" fill="#1A1A1A"/>
<path fill-rule="evenodd" clip-rule="evenodd" d="M112.489 300.516C116.164 299.004 119.581 297.684 122.827 296.439C127.026 298.181 131.001 299.849 134.805 301.617C131.872 303.082 128.782 304.583 125.326 306.427C120.889 304.358 116.577 302.306 112.489 300.516Z" fill="#1A1A1A"/>
<path fill-rule="evenodd" clip-rule="evenodd" d="M324.723 261.978C325.283 261.714 325.702 261.368 326.146 261.107C327.214 261.806 328.232 262.594 329.26 263.355C328.883 263.689 328.536 264.084 328.082 264.388C327.058 263.606 325.892 262.778 324.723 261.978Z" fill="#1A1A1A"/>
<path fill-rule="evenodd" clip-rule="evenodd" d="M348.086 256.218C348.383 256.002 348.708 255.835 349 255.636C349.769 256.232 350.613 256.848 351.352 257.417C351.096 257.648 350.874 257.883 350.646 258.151C349.803 257.516 348.928 256.868 348.086 256.218Z" fill="#1A1A1A"/>
<path fill-rule="evenodd" clip-rule="evenodd" d="M96.603 350.148C99.2194 348.896 101.337 347.714 103.571 346.583C106.851 347.512 109.993 348.352 113.123 349.26C111.203 350.421 109.029 351.773 106.727 353.054C103.299 352.12 99.94 351.105 96.603 350.148Z" fill="#1A1A1A"/>
<path fill-rule="evenodd" clip-rule="evenodd" d="M289.145 258.279C290.063 258.008 291.001 257.822 291.795 257.544C293.073 258.378 294.422 259.244 295.631 260.048C294.861 260.386 294.141 260.675 293.29 260.992C292.018 260.118 290.531 259.154 289.145 258.279Z" fill="#1A1A1A"/>
<path fill-rule="evenodd" clip-rule="evenodd" d="M322.974 237.663C323.557 237.555 324.14 237.462 324.712 237.433C325.673 238.043 326.588 238.74 327.508 239.408C326.963 239.502 326.415 239.606 325.866 239.726C324.884 239.007 323.929 238.322 322.974 237.663Z" fill="#1A1A1A"/>
<path fill-rule="evenodd" clip-rule="evenodd" d="M337.488 262.919C338.018 262.751 338.54 262.632 339.028 262.483C339.849 263.074 340.78 263.724 341.643 264.309C341.151 264.483 340.699 264.645 340.204 264.822C339.274 264.175 338.416 263.567 337.487 262.919H337.488Z" fill="#1A1A1A"/>
<path fill-rule="evenodd" clip-rule="evenodd" d="M349.962 276.522C350.492 276.348 350.987 276.148 351.474 276.02C352.248 276.546 353.099 277.11 353.916 277.635C353.425 277.808 352.934 277.991 352.476 278.199C351.664 277.645 350.812 277.089 349.962 276.522Z" fill="#1A1A1A"/>
<path fill-rule="evenodd" clip-rule="evenodd" d="M267.6 283.797C268.749 283.497 269.851 283.19 270.909 282.907C272.303 283.658 273.66 284.373 275.131 285.16C274.043 285.409 272.975 285.749 271.909 286.064C270.522 285.29 269.004 284.521 267.6 283.797Z" fill="#1A1A1A"/>
<path fill-rule="evenodd" clip-rule="evenodd" d="M362.781 288.428C363.272 288.255 363.768 288.028 364.219 287.847C364.98 288.354 365.665 288.819 366.391 289.315C365.978 289.507 365.561 289.724 365.105 289.955C364.343 289.428 363.578 288.967 362.781 288.426V288.428Z" fill="#1A1A1A"/>
<path fill-rule="evenodd" clip-rule="evenodd" d="M356.548 268.246C356.978 268.135 357.399 268.092 357.826 268.013C358.451 268.44 359.108 268.917 359.738 269.318C359.386 269.394 358.958 269.504 358.6 269.626C357.905 269.145 357.246 268.682 356.548 268.247V268.246Z" fill="#1A1A1A"/>
<path fill-rule="evenodd" clip-rule="evenodd" d="M41 378.239C44.4916 377.187 48.1837 375.939 51.9155 374.854C55.3719 375.595 59.1053 376.123 62.6152 376.771C59.2598 377.799 55.6259 379.003 52.2689 380.197C48.3474 379.537 44.7196 378.928 41 378.241V378.239Z" fill="#1A1A1A"/>
<path fill-rule="evenodd" clip-rule="evenodd" d="M309.334 243.949C310.104 243.98 310.797 243.987 311.49 243.993C312.303 244.51 313.15 245.05 314.025 245.628C313.335 245.596 312.703 245.654 312.007 245.648C311.132 245.071 310.255 244.489 309.336 243.949H309.334Z" fill="#1A1A1A"/>
<path fill-rule="evenodd" clip-rule="evenodd" d="M213.442 310.337C215.18 309.913 217.042 309.66 218.816 309.275C220.563 309.884 222.153 310.416 223.715 311.041C222.105 311.337 220.362 311.753 218.543 312.169C216.843 311.541 215.098 310.937 213.444 310.337H213.442Z" fill="#1A1A1A"/>
<path fill-rule="evenodd" clip-rule="evenodd" d="M219.377 341.924C220.945 340.944 222.496 339.968 224.057 339.119C226.242 339.959 228.47 340.947 230.713 341.9C229.261 342.868 227.818 343.811 226.36 344.912C223.929 343.808 221.626 342.883 219.377 341.922V341.924Z" fill="#1A1A1A"/>
<path fill-rule="evenodd" clip-rule="evenodd" d="M257.352 302.918C258.766 302.11 260.069 301.388 261.279 300.686C263.14 301.718 265.079 302.814 267.016 303.93C265.798 304.679 264.71 305.578 263.353 306.351C261.293 305.194 259.327 304.043 257.352 302.918Z" fill="#1A1A1A"/>
</g>
<g clip-path="url(#clip1_657_2)">
<path fill-rule="evenodd" clip-rule="evenodd" d="M258.701 18.7648C259.25 19.148 259.05 19.7019 261.425 19.3567C265.314 18.0664 260.694 19.7099 261.355 19.5574C260.208 19.3668 260.766 18.6624 260.828 18.231C260.313 18.3634 259.483 18.542 258.701 18.7648Z" fill="#1A1A1A"/>
<path fill-rule="evenodd" clip-rule="evenodd" d="M-2.12201 1.09726C4.15146 -4.87487 9.35142 -10.4156 14.1543 -15.6291C6.04109 -21.519 -1.83466 -26.9774 -10.5644 -32.7368C-13.7171 -30.1621 -17.2569 -27.5333 -21.0023 -24.782L-21.0023 -10.7105C-14.5233 -6.74518 -8.25979 -2.81192 -2.12201 1.09726Z" fill="#1A1A1A"/>
<path fill-rule="evenodd" clip-rule="evenodd" d="M-11.7047 80.0534C-4.90245 69.9454 1.54061 61.1939 7.46289 52.0611C-1.7757 46.6147 -10.9085 40.9536 -21.0012 35.2363L-21.0012 75.0787C-17.8684 76.7222 -14.7696 78.3798 -11.7047 80.0534Z" fill="#1A1A1A"/>
<path fill-rule="evenodd" clip-rule="evenodd" d="M10.0859 47.9673C15.7468 39.9342 21.1682 32.4209 26.1367 25.4674C17.4588 19.6358 8.81287 13.8603 -0.367863 8.10889C-6.61539 14.8596 -13.5713 21.7689 -20.3256 29.6656C-9.68827 35.72 0.240729 42.0132 10.0859 47.9673Z" fill="#1A1A1A"/>
<path fill-rule="evenodd" clip-rule="evenodd" d="M28.4535 22.1402C32.3086 15.4778 36.5607 9.58191 40.5195 3.84857C33.4399 -1.44126 26.0171 -6.90569 18.2731 -12.1875C13.2348 -6.80937 8.09265 -1.29276 2.19432 4.89009C11.4329 10.782 20.1368 16.2885 28.4535 22.1402Z" fill="#1A1A1A"/>
<path fill-rule="evenodd" clip-rule="evenodd" d="M42.6241 1.23776C46.1799 -4.28486 49.7836 -9.31984 52.8105 -14.1702C46.7506 -19.0246 39.8805 -24.19 32.8727 -29.1206C28.9079 -24.6054 25.0389 -19.7932 20.5972 -14.5996C27.9961 -9.5165 35.349 -4.0882 42.6241 1.23776Z" fill="#1A1A1A"/>
<path fill-rule="evenodd" clip-rule="evenodd" d="M83.9181 247.143C87.3861 230.663 90.8042 215.52 94.0566 201.258C85.1952 195.762 76.7328 190.151 67.6518 184.897C63.8027 198.732 58.8422 213.995 53.7899 230.896C64.2477 236.395 74.1408 241.725 83.9181 247.145L83.9181 247.143Z" fill="#1A1A1A"/>
<path fill-rule="evenodd" clip-rule="evenodd" d="M93.9248 152.105C96.4748 140.6 98.989 130.478 100.891 120.404C94.2021 115.463 87.2742 110.083 80.011 104.719C77.0259 114.548 73.8213 124.865 70.2756 135.952C78.2411 141.117 86.4221 146.74 93.9268 152.105L93.9248 152.105Z" fill="#1A1A1A"/>
<path fill-rule="evenodd" clip-rule="evenodd" d="M145.983 138.569C146.35 129.406 146.905 120.833 147.344 112.561C142.264 107.907 137.309 103.352 132.161 98.9731C131.433 106.996 130.507 115.517 129.182 124.581C134.984 129.105 140.603 133.62 145.983 138.569Z" fill="#1A1A1A"/>
<path fill-rule="evenodd" clip-rule="evenodd" d="M0.44 147.133C7.60939 133.648 14.5214 121.766 20.707 110.141C10.1595 104.042 -1.18423 97.7951 -12.506 91.5781C-15.3195 95.383 -18.141 99.256 -21.0003 103.227L-21.0003 136.666C-13.6733 140.208 -6.5518 143.69 0.44 147.133Z" fill="#1A1A1A"/>
<path fill-rule="evenodd" clip-rule="evenodd" d="M23.4833 104.763C28.6473 94.2371 33.4442 84.5204 38.1992 75.5943C29.4694 69.8429 20.0991 63.7162 10.4316 58.1836C4.4095 66.8789 -1.77018 76.2324 -8.42676 86.5171C2.72341 92.4592 13.0814 98.6621 23.4833 104.763Z" fill="#1A1A1A"/>
<path fill-rule="evenodd" clip-rule="evenodd" d="M39.5242 70.7078C43.9699 62.0124 47.8569 54.0877 51.5703 46.5744C44.2114 41.3949 36.597 35.9305 28.853 30.438C23.9403 37.6523 18.5249 45.5509 12.8281 53.869C22.4378 59.5762 30.9381 65.0808 39.5262 70.7078L39.5242 70.7078Z" fill="#1A1A1A"/>
<path fill-rule="evenodd" clip-rule="evenodd" d="M54.277 41.9411C57.4775 34.9977 60.5983 28.4416 63.7031 22.2326C57.3558 17.2779 50.6573 12.3012 43.7753 7.31836C39.7067 13.1962 35.8197 19.3469 31.9387 26.0616C39.2977 31.2651 46.8282 36.6452 54.275 41.9411L54.277 41.9411Z" fill="#1A1A1A"/>
<path fill-rule="evenodd" clip-rule="evenodd" d="M65.5208 18.6424C68.7094 12.9994 71.062 7.59717 73.3926 2.2371C67.4583 -2.42662 61.3944 -7.21276 55.2666 -12.1313C52.4232 -7.06226 49.1228 -1.76239 45.4573 3.57963C52.2396 8.52831 59.0378 13.6977 65.5208 18.6424Z" fill="#1A1A1A"/>
<path fill-rule="evenodd" clip-rule="evenodd" d="M121.976 93.8137C123.03 86.1438 123.93 78.8352 125.039 71.7412C119.733 67.3163 114.617 62.8593 109.292 58.1675C107.867 64.9283 106.522 72.1245 104.63 79.7904C110.565 84.4983 116.277 89.2182 121.976 93.8157L121.976 93.8137Z" fill="#1A1A1A"/>
<path fill-rule="evenodd" clip-rule="evenodd" d="M172.049 89.6979C171.704 83.0836 171.4 76.8024 171.117 70.8202C167.461 67.1318 163.754 63.4815 160.214 59.7168C160.178 65.701 160.262 71.6892 160.35 78.1309C164.309 81.8675 168.18 85.8228 172.049 89.6959L172.049 89.6979Z" fill="#1A1A1A"/>
<path fill-rule="evenodd" clip-rule="evenodd" d="M19.6398 218.133C26.5159 201.3 32.5958 185.864 38.2168 171.175C27.6493 165.451 16.2936 159.325 4.12779 153.738C-3.40276 168.158 -11.0491 183.263 -19.2301 200.15C-6.01073 205.86 7.08693 212.026 19.6398 218.131L19.6398 218.133Z" fill="#1A1A1A"/>
<path fill-rule="evenodd" clip-rule="evenodd" d="M57.1044 122.829C61.0592 112.18 64.5771 102.041 68.0391 92.6417C60.2152 87.1672 51.9204 81.5884 43.5338 76.1621C38.9405 85.1464 34.2753 95.0418 29.5562 105.154C38.7948 111.046 48.3048 116.926 57.1024 122.827L57.1044 122.829Z" fill="#1A1A1A"/>
<path fill-rule="evenodd" clip-rule="evenodd" d="M79.2891 58.1999C81.7773 50.8411 84.05 44.1265 86.3906 37.7329C80.6878 33.0973 74.4922 28.247 68.123 23.5933C65.1858 29.6818 62.069 36.3463 58.8484 43.0749C65.9241 47.9393 72.858 53.179 79.2891 58.202L79.2891 58.1999Z" fill="#1A1A1A"/>
<path fill-rule="evenodd" clip-rule="evenodd" d="M87.5222 34.0806C89.5655 27.9861 91.3713 22.2768 93.0215 16.8044C87.616 12.2209 82.1287 7.77193 76.6714 3.18848C74.4505 8.39403 72.2197 13.6979 69.4441 19.4353C75.8173 24.406 81.9551 29.1681 87.5222 34.0806Z" fill="#1A1A1A"/>
<path fill-rule="evenodd" clip-rule="evenodd" d="M93.6233 14.446C95.2575 9.37293 96.8658 4.45033 98.5 -0.379953C93.735 -4.40352 89.0519 -8.4291 84.1931 -12.543C82.2038 -8.09397 79.9709 -3.39613 77.8199 1.38399C83.2094 5.85908 88.5351 10.278 93.6253 14.444L93.6233 14.446Z" fill="#1A1A1A"/>
<path fill-rule="evenodd" clip-rule="evenodd" d="M127.831 44.5236C128.418 38.7762 128.863 33.2436 129.443 27.9377C125.223 24.0144 120.901 20.0129 116.639 16.0215C115.781 21.1407 114.753 26.252 113.592 31.9913C118.431 36.1774 123.244 40.3194 127.831 44.5236Z" fill="#1A1A1A"/>
<path fill-rule="evenodd" clip-rule="evenodd" d="M129.827 25.5278C130.455 20.5249 130.88 15.6365 131.465 11.2457C127.522 7.4007 123.489 3.59787 119.54 0.0278315C118.698 4.37449 117.848 8.85961 117.074 13.7039C121.211 17.5489 125.62 21.6026 129.827 25.5278Z" fill="#1A1A1A"/>
<path fill-rule="evenodd" clip-rule="evenodd" d="M131.707 9.0662C132.146 4.50281 132.535 0.411008 132.916 -3.55838C129.428 -6.99597 125.689 -10.6021 122.107 -14.0337C121.389 -10.2168 120.662 -6.26951 119.782 -2.1135C123.857 1.50269 127.88 5.31756 131.707 9.0662Z" fill="#1A1A1A"/>
<path fill-rule="evenodd" clip-rule="evenodd" d="M143.659 38.0317C143.988 32.8563 144.171 27.721 144.471 23.0833C140.753 19.3668 136.972 15.6944 133.123 12.1104C132.662 16.6958 132.217 21.5823 131.652 26.4487C135.795 30.2856 139.905 34.255 143.661 38.0297L143.659 38.0317Z" fill="#1A1A1A"/>
<path fill-rule="evenodd" clip-rule="evenodd" d="M144.6 20.8276C144.674 16.196 144.768 11.7992 144.945 7.67124C141.509 4.32195 137.912 0.637519 134.482 -2.60742C134.098 1.29774 133.801 5.54005 133.444 9.92082C137.189 13.4688 140.975 17.2074 144.598 20.8276L144.6 20.8276Z" fill="#1A1A1A"/>
<path fill-rule="evenodd" clip-rule="evenodd" d="M144.961 5.68285C145.061 1.59306 145.055 -2.2499 145.145 -6.04068C142.082 -9.25953 138.823 -12.4704 135.467 -15.5889C135.273 -12.0289 135.016 -8.34645 134.567 -4.5075C137.981 -1.31273 141.595 2.32152 144.963 5.68486L144.961 5.68285Z" fill="#1A1A1A"/>
<path fill-rule="evenodd" clip-rule="evenodd" d="M157.447 50.9996C157.389 45.5552 157.312 40.3015 157.19 35.393C153.602 31.8109 150.152 28.2388 146.594 24.7109C146.433 29.5392 146.191 34.6183 145.972 39.7175C149.831 43.5404 153.744 47.3754 157.445 50.9996L157.447 50.9996Z" fill="#1A1A1A"/>
<path fill-rule="evenodd" clip-rule="evenodd" d="M157.027 33.1011C157.011 28.309 156.802 23.6713 156.66 19.3568C153.366 15.9653 150.071 12.5498 146.799 9.26074C146.841 13.4569 146.773 17.9541 146.564 22.4853C150.203 25.949 153.613 29.4889 157.027 33.1011Z" fill="#1A1A1A"/>
<path fill-rule="evenodd" clip-rule="evenodd" d="M156.625 17.1755C156.541 12.9272 156.374 8.81327 156.2 4.92817C153.225 1.83173 150.156 -1.3209 146.929 -4.47754C146.904 -0.754988 146.83 3.14817 146.768 7.17375C150.088 10.4548 153.444 13.8703 156.625 17.1735L156.625 17.1755Z" fill="#1A1A1A"/>
<path fill-rule="evenodd" clip-rule="evenodd" d="M156.18 3.144C155.96 -0.721028 155.892 -4.05829 155.693 -7.58417C152.786 -10.7147 149.994 -13.5563 147.089 -16.5645C147.073 -13.2051 147.109 -9.7876 147.037 -6.12726C150.126 -3.16929 153.195 -0.0106336 156.18 3.144Z" fill="#1A1A1A"/>
<path fill-rule="evenodd" clip-rule="evenodd" d="M168.535 44.64C168.252 39.6572 168.058 34.9413 167.687 30.3819C164.467 27.0026 161.35 23.7396 157.994 20.4404C158.297 24.9396 158.329 29.4388 158.47 34.3152C161.833 37.6284 165.189 41.088 168.535 44.638L168.535 44.64Z" fill="#1A1A1A"/>
<path fill-rule="evenodd" clip-rule="evenodd" d="M167.365 28.1001C167.162 23.6371 166.779 19.5352 166.344 15.3973C163.452 12.2527 160.505 9.2064 157.504 6.08789C157.839 10.1074 157.849 14.0206 157.985 18.3673C161.186 21.6423 164.442 24.9334 167.365 28.1001Z" fill="#1A1A1A"/>
<path fill-rule="evenodd" clip-rule="evenodd" d="M166.182 13.4869C165.878 9.55766 165.491 5.91538 165.092 2.22695C162.39 -0.759121 159.577 -3.64284 156.755 -6.64697C157.117 -3.09098 157.19 0.400787 157.478 4.30595C160.305 7.23383 163.222 10.3463 166.182 13.4869Z" fill="#1A1A1A"/>
<path fill-rule="evenodd" clip-rule="evenodd" d="M164.963 0.430824C164.654 -3.04489 164.466 -6.31793 164.157 -9.56689C161.539 -12.3723 158.951 -15.0955 156.297 -17.8789C156.459 -14.7524 156.596 -11.668 156.752 -8.2063C159.537 -5.24833 162.245 -2.50708 164.963 0.430824Z" fill="#1A1A1A"/>
<path fill-rule="evenodd" clip-rule="evenodd" d="M177.668 39.25C177.139 34.7669 176.63 30.4443 176.112 26.0876C173.242 23.0012 170.461 19.989 167.543 16.8184C168.098 21.0928 168.34 25.1043 168.832 29.6777C171.853 32.8023 174.699 36.0492 177.668 39.25Z" fill="#1A1A1A"/>
<path fill-rule="evenodd" clip-rule="evenodd" d="M175.902 24.0846C175.467 20.0931 174.903 16.0836 174.426 12.2728C171.76 9.44524 169.068 6.49932 166.309 3.54736C166.722 7.27995 167.011 10.8841 167.346 14.9117C170.309 18.0763 173.065 21.0985 175.904 24.0846L175.902 24.0846Z" fill="#1A1A1A"/>
<path fill-rule="evenodd" clip-rule="evenodd" d="M174.211 10.4489C173.808 6.90492 173.331 3.42921 172.796 -0.13481C170.25 -2.84996 167.92 -5.44471 165.312 -8.28027C165.621 -5.03533 165.882 -1.72216 166.114 1.7636C168.889 4.65936 171.645 7.65345 174.211 10.4489Z" fill="#1A1A1A"/>
<path fill-rule="evenodd" clip-rule="evenodd" d="M188.269 48.8681C187.529 44.1422 186.869 39.6791 186.128 35.3886C183.566 32.3062 180.932 29.3824 178.047 26.2197C178.708 30.5443 179.179 34.911 179.755 39.3721C182.692 42.5528 185.48 45.6934 188.271 48.8661L188.269 48.8681Z" fill="#1A1A1A"/>
<path fill-rule="evenodd" clip-rule="evenodd" d="M185.914 33.3522C185.188 29.1279 184.621 25.0943 183.937 21.137C181.397 18.3957 178.946 15.5241 176.284 12.6143C176.839 16.4532 177.326 20.4166 177.935 24.4241C180.6 27.36 183.198 30.2939 185.914 33.3522Z" fill="#1A1A1A"/>
<path fill-rule="evenodd" clip-rule="evenodd" d="M195.355 44.2929C194.599 39.9964 193.769 35.8785 193.019 31.8529C190.459 28.9572 188.003 26.1256 185.538 23.29C186.189 27.0888 186.817 31.2128 187.552 35.5393C190.092 38.397 192.718 41.379 195.355 44.2949L195.355 44.2929Z" fill="#1A1A1A"/>
<path fill-rule="evenodd" clip-rule="evenodd" d="M192.666 91.0262C191.814 84.8454 191.022 79.09 190.453 73.6155C187.318 69.9733 184.102 66.638 181.085 63.4111C181.53 68.725 182.168 74.3841 182.813 80.3844C186.067 83.7979 189.366 87.3478 192.664 91.0242L192.666 91.0262Z" fill="#1A1A1A"/>
<path fill-rule="evenodd" clip-rule="evenodd" d="M115.65 11.2877C116.472 6.55376 117.184 1.85794 118.352 -2.19774C114.145 -6.01661 109.903 -9.91978 105.773 -13.542C104.609 -9.51642 103.426 -5.28816 102.301 -0.811066C106.888 3.28274 111.23 7.20195 115.65 11.2897L115.65 11.2877Z" fill="#1A1A1A"/>
<path fill-rule="evenodd" clip-rule="evenodd" d="M111.874 29.166C113.022 23.6033 114.047 18.488 115.137 13.6798C110.607 9.55191 106.082 5.38184 101.363 1.3081C99.9758 6.32502 98.2459 10.9526 96.891 16.2625C101.929 20.6493 106.946 24.9859 111.874 29.166Z" fill="#1A1A1A"/>
<path fill-rule="evenodd" clip-rule="evenodd" d="M107.151 49.8295C108.424 43.3236 109.628 37.5581 110.891 31.7445C105.916 27.4059 100.852 23.0773 95.9014 18.7427C94.1095 24.171 92.3556 29.9204 90.5597 35.9527C96.3683 40.7248 101.83 45.2601 107.151 49.8295Z" fill="#1A1A1A"/>
<path fill-rule="evenodd" clip-rule="evenodd" d="M135.907 264.907C139.175 260.811 142.473 256.801 145.484 253.137C142.138 247.217 139.021 241.323 135.488 235.371C132.026 238.692 128.396 241.981 124.683 245.957C128.47 252.374 132.235 258.788 135.907 264.905L135.907 264.907Z" fill="#1A1A1A"/>
<path fill-rule="evenodd" clip-rule="evenodd" d="M142.614 63.9973C144.253 62.3678 145.777 60.7765 147.082 59.1209C145.47 56.8151 143.752 54.413 142.118 52.041C140.567 53.514 138.901 54.9047 137.027 56.3997C138.933 58.9523 140.825 61.4989 142.614 63.9993L142.614 63.9973Z" fill="#1A1A1A"/>
<path fill-rule="evenodd" clip-rule="evenodd" d="M35.5966 336.372C39.5974 331.252 43.4305 326.424 46.8047 321.734C44.929 315.628 42.7082 309.635 40.5891 303.348C36.9016 307.908 32.9169 312.395 28.6228 317.006C31.0851 323.564 33.304 330.273 35.5986 336.374L35.5966 336.372Z" fill="#1A1A1A"/>
<path fill-rule="evenodd" clip-rule="evenodd" d="M190.159 14.1249C190.712 13.6212 191.251 13.2239 191.77 12.8285C190.792 11.48 189.832 10.1234 188.874 8.81299C188.282 9.11601 187.585 9.42907 187.003 9.78025C188.05 11.2311 189.09 12.6278 190.161 14.1249L190.159 14.1249Z" fill="#1A1A1A"/>
<path fill-rule="evenodd" clip-rule="evenodd" d="M215.447 60.594C215.964 59.3779 216.421 58.226 216.842 57.0861C215.675 55.3663 214.467 53.6486 213.194 51.8906C212.618 52.8499 212.105 53.9034 211.442 55.1015C212.837 56.8915 214.14 58.7437 215.445 60.594L215.447 60.594Z" fill="#1A1A1A"/>
<path fill-rule="evenodd" clip-rule="evenodd" d="M168.094 319.238C170.073 314.418 171.801 309.937 173.43 305.678C171.151 300.172 168.968 294.958 166.653 289.969C164.736 293.816 162.772 297.868 160.358 302.401C163.066 308.221 165.751 313.876 168.094 319.238Z" fill="#1A1A1A"/>
<path fill-rule="evenodd" clip-rule="evenodd" d="M218.531 40.8812C218.876 40.1467 219.329 39.5969 219.67 39.0149C218.756 37.6142 217.724 36.2797 216.729 34.9312C216.292 35.4248 215.775 35.8804 215.376 36.4764C216.399 37.8189 217.483 39.348 218.531 40.8812Z" fill="#1A1A1A"/>
<path fill-rule="evenodd" clip-rule="evenodd" d="M226.07 10.238C226.353 9.84869 226.571 9.42326 226.832 9.03997C226.052 8.03056 225.246 6.92483 224.501 5.95557C224.198 6.2907 223.891 6.58167 223.54 6.88068C224.372 7.98641 225.22 9.13428 226.07 10.238Z" fill="#1A1A1A"/>
<path fill-rule="evenodd" clip-rule="evenodd" d="M103.138 340.074C104.776 336.643 106.322 333.865 107.803 330.935C106.588 326.633 105.488 322.513 104.299 318.407C102.78 320.926 101.01 323.777 99.3344 326.795C100.556 331.293 101.884 335.698 103.138 340.074Z" fill="#1A1A1A"/>
<path fill-rule="evenodd" clip-rule="evenodd" d="M223.372 87.5448C223.727 86.3407 223.971 85.1106 224.334 84.0691C223.243 82.3934 222.109 80.6234 221.058 79.0381C220.615 80.0475 220.237 80.9927 219.822 82.1084C220.966 83.7761 222.227 85.7266 223.372 87.5448Z" fill="#1A1A1A"/>
<path fill-rule="evenodd" clip-rule="evenodd" d="M250.353 43.1751C250.495 42.4105 250.616 41.6459 250.654 40.8954C249.856 39.6351 248.944 38.4351 248.07 37.229C247.947 37.9434 247.811 38.6618 247.653 39.3823C248.595 40.6706 249.491 41.9228 250.353 43.1751Z" fill="#1A1A1A"/>
<path fill-rule="evenodd" clip-rule="evenodd" d="M217.3 24.1388C217.52 23.4445 217.676 22.7602 217.871 22.12C217.097 21.0424 216.247 19.8222 215.481 18.6904C215.253 19.3346 215.042 19.9286 214.81 20.5768C215.656 21.7969 216.452 22.9227 217.3 24.1408L217.3 24.1388Z" fill="#1A1A1A"/>
<path fill-rule="evenodd" clip-rule="evenodd" d="M199.498 7.77776C199.725 7.08342 199.987 6.43323 200.154 5.79508C199.466 4.77965 198.728 3.6639 198.041 2.59229C197.814 3.23646 197.574 3.88062 197.303 4.48065C198.027 5.54624 198.756 6.66401 199.498 7.77776Z" fill="#1A1A1A"/>
<path fill-rule="evenodd" clip-rule="evenodd" d="M189.975 115.802C190.368 114.295 190.769 112.85 191.141 111.461C190.157 109.633 189.221 107.853 188.191 105.925C187.866 107.352 187.421 108.752 187.008 110.151C188.022 111.969 189.028 113.96 189.975 115.802Z" fill="#1A1A1A"/>
<path fill-rule="evenodd" clip-rule="evenodd" d="M66.373 413C67.7498 408.421 69.384 403.578 70.8027 398.684C69.833 394.15 69.1426 389.254 68.2945 384.65C66.9497 389.051 65.3733 393.817 63.8109 398.22C64.6749 403.364 65.4711 408.122 66.371 413L66.373 413Z" fill="#1A1A1A"/>
<path fill-rule="evenodd" clip-rule="evenodd" d="M242.127 61.0654C242.087 60.0559 242.077 59.1469 242.069 58.2378C241.393 57.1722 240.686 56.0605 239.93 54.9126C239.972 55.8176 239.896 56.6464 239.904 57.5595C240.658 58.7074 241.421 59.8573 242.127 61.0633L242.127 61.0654Z" fill="#1A1A1A"/>
<path fill-rule="evenodd" clip-rule="evenodd" d="M155.242 186.831C155.797 184.552 156.128 182.109 156.631 179.784C155.835 177.492 155.138 175.407 154.32 173.358C153.933 175.469 153.388 177.755 152.844 180.141C153.666 182.37 154.456 184.66 155.242 186.829L155.242 186.831Z" fill="#1A1A1A"/>
<path fill-rule="evenodd" clip-rule="evenodd" d="M113.901 179.049C115.184 176.992 116.461 174.957 117.572 172.911C116.473 170.045 115.18 167.123 113.933 164.181C112.666 166.086 111.43 167.978 109.99 169.89C111.434 173.079 112.646 176.099 113.903 179.049L113.901 179.049Z" fill="#1A1A1A"/>
<path fill-rule="evenodd" clip-rule="evenodd" d="M164.952 129.243C166.009 127.389 166.953 125.679 167.873 124.092C166.522 121.651 165.088 119.109 163.627 116.568C162.647 118.166 161.47 119.593 160.458 121.373C161.973 124.074 163.479 126.652 164.952 129.243Z" fill="#1A1A1A"/>
</g>
<defs>
<clipPath id="clip0_657_2">
<rect width="398" height="217" fill="white" transform="matrix(-1 0 0 1 439 228)"/>
</clipPath>
<clipPath id="clip1_657_2">
<rect width="522" height="284" fill="white" transform="translate(263 -109) rotate(90)"/>
</clipPath>
</defs>
</svg>
